<svg xmlns="http://www.w3.org/2000/svg" viewBox="0 0 24 24">    <path d="M17,7.375h-1.378C15.425,6.471,14.985,5.664,14.388,5H17c0.552,0,1-0.448,1-1c0-0.552-0.448-1-1-1H7C6.448,3,6,3.448,6,4 c0,0.552,0.448,1,1,1h3c1.537,0,2.828,0.997,3.299,2.375H7c-0.552,0-1,0.448-1,1c0,0.552,0.448,1,1,1h6.376 C12.986,10.882,11.629,12,10,12H7.063C6.476,12,6,12.476,6,13.063c0,0.291,0.118,0.553,0.307,0.745l-0.001,0.001l0.004,0.004 c0,0,0,0,0.001,0.001l7.005,6.916l0.006-0.003C13.501,20.893,13.737,21,14,21c0.552,0,1-0.448,1-1c0-0.278-0.114-0.529-0.298-0.71 l0-0.001L9,13.75c0.614,0,1.343,0,1.5,0c2.6,0,4.743-1.894,5.162-4.375H17c0.552,0,1-0.448,1-1C18,7.823,17.552,7.375,17,7.375z"></path></svg>